<?xml version="1.0" encoding="UTF-8"?>
<svg id="Laag_1" data-name="Laag 1" xmlns="http://www.w3.org/2000/svg" viewBox="0 0 44.46 41.07">
  <defs>
    <style>
      .cls-1 {
        fill: #fff;
        font-family: Impact, Impact;
        font-size: 6px;
        letter-spacing: .22em;
      }

      .cls-2 {
        fill: #95c11f;
      }

      .cls-2, .cls-3, .cls-4 {
        stroke-width: 0px;
      }

      .cls-3 {
        fill: #3c3c3b;
      }

      .cls-4 {
        fill: #dadada;
      }
    </style>
  </defs>
  <ellipse class="cls-4" cx="24.32" cy="20.95" rx="15.01" ry="16.01"/>
  <rect class="cls-3" x="5.48" y="29.11" width="30.64" height="8.85"/>
  <g>
    <path class="cls-2" d="m16.43,20.99c1.42,1.92,3.04,3.66,4.89,5.18.44.36,1,.5,1.51.2.45-.26.77-.9.57-1.41-1.7-4.45-2.07-9.29-.98-13.93.37-1.56-2.04-2.23-2.41-.66-1.19,5.06-.88,10.4.98,15.26l2.09-1.22c-1.68-1.37-3.21-2.93-4.5-4.67-.4-.54-1.08-.82-1.71-.45-.53.31-.85,1.16-.45,1.71h0Z"/>
    <path class="cls-3" d="m23.66,12.39c1.03.15,2,.46,2.89.99.68.41,1.78,1.15,1.84,2.03.05.69-.81,1.03-1.35,1.17-1.11.29-2.27.25-3.37.61-.87.29-1.25,1.4-.55,2.09,2,1.97,3.75,4.13,5.25,6.5.86,1.36,3.02.1,2.16-1.26-1.61-2.54-3.5-4.9-5.64-7.01l-.55,2.09c1.45-.48,3.01-.33,4.4-1,1.27-.61,2.24-1.85,2.14-3.31-.22-3.04-3.9-4.93-6.56-5.31-.67-.1-1.34.17-1.54.87-.16.59.2,1.44.87,1.54h0Z"/>
    <text/>
  </g>
  <text class="cls-1" transform="translate(7.36 35.73)"><tspan x="0" y="0">VeRitas</tspan></text>
</svg>